<svg width="976" height="273" viewBox="0 0 976 273" fill="none" xmlns="http://www.w3.org/2000/svg">
<path d="M4.27964 230.371C4.27964 230.371 4.0211 227.463 3.58566 222.41C3.37473 219.869 3.12979 216.765 2.85764 213.219C2.72836 211.446 2.59229 209.558 2.45621 207.561C2.32013 205.564 2.17724 203.458 2.04116 201.271C1.90508 199.064 1.76902 196.788 1.63295 194.397C1.50367 192.04 1.37439 189.588 1.24512 187.047C1.12265 184.521 1.00697 181.926 0.891306 179.263C0.782444 176.6 0.680398 173.877 0.585144 171.112C0.496694 168.347 0.41505 165.529 0.333404 162.669C0.265365 159.809 0.204117 156.929 0.149686 154.008C0.108863 151.087 0.0680371 148.153 0.0408216 145.198C0.02041 142.25 0.00680387 139.282 0 136.327C0.00680387 133.352 0.02041 130.37 0.0408216 127.429C0.0680371 124.481 0.108863 121.533 0.149686 118.626C0.204117 115.705 0.265365 112.825 0.333404 109.965C0.41505 107.105 0.496694 104.286 0.585144 101.529C0.680398 98.7573 0.782444 96.0335 0.891306 93.3708C1.00697 90.7149 1.12265 88.1133 1.24512 85.5865C1.37439 83.046 1.50367 80.6007 1.63295 78.2301C1.76902 75.8527 1.90508 73.5704 2.04116 71.3696C2.17724 69.1688 2.32013 67.0766 2.45621 65.066C2.59229 63.0826 2.72836 61.1942 2.85764 59.4078C3.12979 55.8689 3.37473 52.7714 3.58566 50.2378C4.0211 45.1569 4.27964 42.2837 4.27964 42.2837C4.27964 42.2837 5.86495 42.0255 8.68856 41.5569C10.1174 41.3259 11.8592 41.0406 13.8731 40.7146C14.8869 40.5516 15.9687 40.3817 17.1186 40.1915C18.2752 40.0081 19.4931 39.818 20.7722 39.6074C22.065 39.4036 23.4053 39.193 24.8137 38.9689C26.2289 38.7515 27.685 38.5206 29.2158 38.2828C30.7331 38.0451 32.3252 37.8006 33.9513 37.5492C35.5911 37.2979 37.2784 37.0398 38.9998 36.7749C40.7348 36.51 42.5174 36.2383 44.3272 35.9665C46.1575 35.6948 48.0217 35.4163 49.9064 35.1379C51.8183 34.8526 53.7506 34.5673 55.7101 34.282C57.6764 33.9899 59.67 33.7046 61.6703 33.4125C63.6979 33.1204 65.739 32.8284 67.7802 32.5363C69.8418 32.2442 71.9034 31.9521 73.9785 31.66C76.0537 31.3748 78.1357 31.0827 80.2109 30.7974C82.2861 30.5053 84.3612 30.2268 86.4228 29.9415C88.4844 29.663 90.5324 29.3845 92.5531 29.1128C94.5807 28.8411 96.581 28.5762 98.5405 28.3181C100.514 28.0532 102.439 27.8019 104.324 27.5573C106.215 27.306 108.039 27.075 109.821 26.8441C111.597 26.6131 113.319 26.3958 114.958 26.1852C116.612 25.9746 118.183 25.7777 119.667 25.5875C122.653 25.2139 125.287 24.8878 127.471 24.6161C131.866 24.0727 134.411 23.7603 134.411 23.7603C134.411 23.7603 134.036 28.0396 133.485 34.4722C133.227 37.6851 132.934 41.4753 132.628 45.5305C132.342 49.5993 132.043 53.9533 131.764 58.3074C131.492 62.675 131.24 67.0563 131.015 71.1794C130.811 75.2889 130.628 79.1471 130.478 82.4415C130.206 89.0643 130.049 93.4862 130.049 93.4862C130.049 93.4862 128.294 93.5746 125.253 93.7308C123.756 93.8055 121.939 93.8802 119.864 93.9821C117.802 94.084 115.482 94.1995 112.985 94.3353C110.495 94.4644 107.828 94.5799 105.031 94.7225C102.255 94.8651 99.3434 95.0282 96.3769 95.1708C93.4376 95.3338 90.4167 95.4901 87.389 95.6395C85.8921 95.721 84.3748 95.8093 82.8712 95.8772C81.3675 95.9587 79.8707 96.0403 78.3874 96.1354C76.911 96.2033 75.4346 96.278 73.9649 96.3731C72.5157 96.441 71.0733 96.5293 69.6513 96.6108C66.8345 96.7671 64.0789 96.9165 61.4526 97.0524C58.8467 97.195 56.3429 97.3512 53.9956 97.4871C51.6754 97.6026 49.4914 97.7452 47.491 97.8607C45.5111 97.9694 43.7081 98.078 42.1228 98.1731C40.5443 98.2479 39.1835 98.3294 38.0541 98.4109C35.8292 98.5264 34.5773 98.6147 34.5773 98.6147C34.5773 98.6147 34.4208 103.315 34.2303 110.373C34.1487 113.905 34.0738 118.028 34.0058 122.443C33.9786 124.664 33.9513 126.94 33.9377 129.256C33.9309 131.579 33.9173 133.936 33.9173 136.3C33.9173 138.671 33.9309 141.028 33.9377 143.351C33.9581 145.674 33.9786 147.956 34.0058 150.177C34.0738 154.592 34.1419 158.722 34.2303 162.248C34.4208 169.305 34.5773 174.019 34.5773 174.019C34.5773 174.019 35.8292 174.08 38.0541 174.216C39.1835 174.291 40.5443 174.372 42.1228 174.468C43.7081 174.556 45.5111 174.665 47.491 174.78C49.4914 174.882 51.6754 175.018 53.9956 175.147C56.3429 175.283 58.8399 175.425 61.4458 175.568C64.0789 175.717 66.8345 175.867 69.6513 176.023C71.0733 176.105 72.5157 176.179 73.9649 176.261C75.4346 176.342 76.911 176.424 78.3874 176.499C79.8707 176.58 81.3675 176.648 82.8712 176.743C84.3748 176.825 85.8853 176.899 87.389 176.967C90.4167 177.13 93.4376 177.3 96.3769 177.45C99.3366 177.606 102.255 177.755 105.025 177.898C107.828 178.034 110.495 178.156 112.985 178.299C115.482 178.421 117.795 178.536 119.864 178.638C121.939 178.74 123.749 178.815 125.253 178.89C128.287 179.032 130.042 179.12 130.042 179.12C130.042 179.12 130.206 183.556 130.478 190.179C130.621 193.48 130.791 197.331 131.015 201.461C131.24 205.571 131.492 209.952 131.757 214.333C132.043 218.687 132.335 223.035 132.608 227.097C132.914 231.159 133.227 234.942 133.485 238.155C134.03 244.601 134.411 248.88 134.411 248.88C134.411 248.88 131.866 248.568 127.464 248.025C125.287 247.753 122.653 247.427 119.667 247.067C118.183 246.863 116.612 246.666 114.958 246.455C113.319 246.259 111.597 246.028 109.821 245.797C108.032 245.566 106.208 245.335 104.324 245.083C102.439 244.852 100.514 244.588 98.5405 244.336C96.581 244.064 94.5807 243.813 92.5463 243.528C90.5324 243.27 88.4776 242.978 86.4228 242.713C84.3612 242.421 82.2861 242.135 80.2041 241.843C78.1357 241.572 76.0537 241.28 73.9717 240.981C71.9034 240.689 69.8418 240.396 67.7802 240.104C65.739 239.826 63.6911 239.52 61.6703 239.242C59.67 238.95 57.6764 238.664 55.7101 238.372C53.7438 238.073 51.8183 237.788 49.9064 237.51C48.0217 237.224 46.1575 236.946 44.3272 236.674C42.5174 236.416 40.7348 236.131 38.9998 235.879C37.2784 235.608 35.5911 235.356 33.9513 235.091C32.3252 234.84 30.7331 234.596 29.2158 234.371C27.685 234.12 26.229 233.896 24.8069 233.672C23.4053 233.448 22.065 233.251 20.7722 233.047C19.4863 232.83 18.2752 232.633 17.1186 232.449C15.9687 232.266 14.8869 232.089 13.8731 231.926C11.8524 231.6 10.1174 231.315 8.68856 231.097C5.86495 230.622 4.27964 230.371 4.27964 230.371Z" fill="white"/>
<path d="M139.86 23.108C139.86 23.108 142.453 22.7956 147.038 22.2522C149.359 21.9805 152.189 21.6476 155.468 21.2672C157.115 21.077 158.877 20.8801 160.748 20.6627C162.626 20.4521 164.606 20.228 166.681 19.997C168.777 19.7593 170.961 19.5148 173.24 19.2634C175.533 19.0121 177.908 18.754 180.371 18.4823C182.847 18.2174 185.412 17.9457 188.045 17.6604C190.692 17.3819 193.42 17.0966 196.21 16.8045C199.006 16.5192 201.884 16.2203 204.817 15.9215C207.743 15.6294 210.75 15.3237 213.798 15.0248C216.86 14.7192 219.969 14.4203 223.106 14.1146C226.276 13.809 229.461 13.5101 232.686 13.2044C235.917 12.9056 239.17 12.6067 242.442 12.3078C245.722 12.0089 249.022 11.7169 252.308 11.4248C255.608 11.1395 258.928 10.8474 262.194 10.5689C265.514 10.2904 268.801 10.0119 272.039 9.747C275.305 9.4753 278.537 9.21718 281.714 8.96585C284.912 8.70773 288.035 8.4632 291.124 8.22546C294.199 7.99451 297.227 7.76356 300.16 7.5462C303.113 7.32884 305.97 7.12506 308.733 6.92807C311.495 6.73109 314.162 6.54089 316.693 6.36428C319.258 6.19447 321.694 6.02465 323.966 5.87522C328.593 5.56955 332.628 5.31143 335.955 5.10086C342.697 4.68651 346.576 4.45557 346.576 4.45557C346.576 4.45557 346.351 8.34772 345.963 15.249C345.773 18.7132 345.555 22.9518 345.303 27.8153C345.188 30.2742 345.045 32.8758 344.929 35.62C344.8 38.3982 344.671 41.2986 344.535 44.3485C344.405 47.4119 344.276 50.5909 344.147 53.9125C344.017 57.2272 343.888 60.6575 343.752 64.2236C343.643 67.7693 343.528 71.4306 343.398 75.1801C343.289 78.9432 343.201 82.7878 343.106 86.7071C342.997 90.6264 342.929 94.6341 342.847 98.696C342.772 102.765 342.711 106.874 342.657 111.038C342.609 115.188 342.548 119.393 342.534 123.604C342.514 127.816 342.5 132.075 342.493 136.327C342.5 140.552 342.5 144.797 342.534 149.009C342.548 153.241 342.609 157.425 342.657 161.595C342.711 165.759 342.772 169.869 342.847 173.938C342.929 178 343.01 182.007 343.106 185.92C343.201 189.846 343.303 193.697 343.398 197.454C343.528 201.203 343.643 204.864 343.766 208.417C343.888 211.976 344.017 215.413 344.14 218.708C344.276 222.05 344.405 225.215 344.521 228.292C344.671 231.328 344.8 234.242 344.929 237.007C345.045 239.758 345.181 242.366 345.303 244.805C345.548 249.668 345.773 253.92 345.963 257.385C346.344 264.266 346.576 268.198 346.576 268.198C346.576 268.198 342.697 267.968 335.955 267.54C332.628 267.329 328.593 267.071 323.96 266.765C321.687 266.609 319.258 266.446 316.693 266.269C314.162 266.1 311.495 265.923 308.733 265.726C305.97 265.515 303.113 265.325 300.16 265.087C297.227 264.89 294.199 264.66 291.124 264.408C288.035 264.191 284.912 263.926 281.714 263.675C278.537 263.423 275.305 263.158 272.039 262.907C268.801 262.629 265.514 262.35 262.194 262.085C258.928 261.793 255.608 261.501 252.301 261.216C249.022 260.937 245.722 260.631 242.442 260.346C239.17 260.047 235.917 259.748 232.686 259.436C229.461 259.144 226.276 258.825 223.106 258.526C219.969 258.22 216.853 257.914 213.798 257.616C210.75 257.317 207.743 257.011 204.81 256.719C201.885 256.42 199.006 256.121 196.21 255.836C193.42 255.544 190.692 255.259 188.045 254.973C185.406 254.695 182.847 254.423 180.371 254.151C177.908 253.886 175.526 253.628 173.24 253.377C170.954 253.126 168.77 252.881 166.681 252.657C164.606 252.412 162.626 252.202 160.748 251.991C158.877 251.76 157.115 251.563 155.468 251.387C152.189 250.993 149.359 250.66 147.038 250.388C142.453 249.858 139.86 249.532 139.86 249.532C139.86 249.532 139.547 246.089 139.037 240.057C138.792 237.027 138.493 233.312 138.173 229.08C138.017 226.954 137.846 224.692 137.69 222.301C137.527 219.903 137.363 217.383 137.193 214.754C137.03 212.098 136.867 209.368 136.703 206.495C136.547 203.655 136.384 200.7 136.241 197.644C136.084 194.601 135.955 191.463 135.812 188.256C135.683 185.044 135.56 181.756 135.438 178.414C135.329 175.079 135.234 171.669 135.132 168.211C135.064 164.754 134.989 161.269 134.921 157.737C134.866 154.198 134.819 150.653 134.785 147.066C134.757 143.5 134.744 139.907 134.737 136.327C134.744 132.727 134.757 129.12 134.785 125.547C134.819 121.981 134.866 118.422 134.921 114.896C134.989 111.364 135.064 107.88 135.132 104.422C135.234 100.965 135.329 97.5549 135.438 94.2197C135.56 90.871 135.69 87.5901 135.819 84.3772C135.955 81.1711 136.098 78.0398 136.234 74.9967C136.384 71.94 136.547 68.9852 136.703 66.1323C136.873 63.2727 137.037 60.5284 137.193 57.8861C137.363 55.2438 137.527 52.7373 137.683 50.326C137.86 47.9486 138.023 45.6798 138.18 43.547C138.5 39.3084 138.792 35.6132 139.037 32.5837C139.554 26.5247 139.86 23.108 139.86 23.108ZM268.841 87.7939C268.841 87.7939 263.616 87.9909 255.853 88.249C252.009 88.3985 247.573 88.5411 242.864 88.7313C240.51 88.8196 238.102 88.9079 235.666 88.9826C233.237 89.0913 230.787 89.1796 228.358 89.2747C225.936 89.3494 223.521 89.4445 221.153 89.5464C218.799 89.6279 216.499 89.7162 214.268 89.8045C209.865 89.9947 205.81 90.1577 202.34 90.3004C195.489 90.5789 190.998 90.7487 190.998 90.7487C190.998 90.7487 190.821 96.4341 190.604 104.952C190.508 109.218 190.42 114.204 190.345 119.543C190.304 122.226 190.291 124.97 190.27 127.775C190.257 130.587 190.25 133.44 190.229 136.293C190.236 139.16 190.257 142.012 190.257 144.825C190.291 147.63 190.318 150.394 190.345 153.078C190.42 158.417 190.502 163.402 190.604 167.661C190.821 176.186 190.998 181.851 190.998 181.851C190.998 181.851 195.489 182.041 202.334 182.32C205.804 182.462 209.865 182.625 214.268 182.816C216.499 182.904 218.799 182.992 221.153 183.067C223.514 183.176 225.929 183.25 228.358 183.345C230.787 183.454 233.237 183.529 235.659 183.617C238.095 183.712 240.503 183.8 242.857 183.902C247.573 184.072 252.009 184.215 255.853 184.371C263.616 184.622 268.841 184.819 268.841 184.819C268.841 184.819 268.671 178.774 268.46 169.706C268.372 165.168 268.284 159.863 268.215 154.178C268.181 151.311 268.161 148.37 268.141 145.382C268.127 142.386 268.12 139.35 268.113 136.293C268.12 133.25 268.127 130.207 268.141 127.218C268.161 124.229 268.181 121.302 268.215 118.442C268.284 112.757 268.372 107.445 268.46 102.907C268.671 93.8393 268.841 87.7939 268.841 87.7939Z" fill="white"/>
<path d="M354.829 3.98046C354.829 3.98046 358.748 3.7563 365.661 3.3895C369.137 3.2061 373.376 2.99553 378.275 2.751C380.724 2.63552 383.344 2.51326 386.106 2.39099C388.882 2.26872 391.815 2.13967 394.863 2.01061C397.938 1.88155 401.136 1.75928 404.47 1.63022C407.797 1.50795 411.253 1.3789 414.812 1.25663C418.397 1.14115 422.078 1.02568 425.848 0.916999C429.61 0.808318 433.482 0.706426 437.428 0.611329C441.381 0.516233 445.409 0.434724 449.477 0.353213C453.573 0.285287 457.703 0.224154 461.895 0.163021C466.086 0.115473 470.304 0.0747169 474.557 0.0407539C478.795 0.0203761 483.068 0.0067926 487.327 0C491.58 0 495.859 0.0135821 500.098 0.0339599C504.351 0.0611302 508.562 0.101888 512.76 0.142644C516.951 0.196985 521.088 0.258116 525.184 0.326042C529.253 0.40076 533.288 0.482272 537.247 0.570576C541.194 0.665672 545.072 0.767562 548.834 0.869451C552.611 0.978133 556.292 1.08681 559.884 1.20229C563.449 1.32455 566.906 1.44682 570.239 1.56909C573.58 1.69135 576.778 1.82042 579.86 1.94268C582.915 2.07174 585.848 2.19401 588.624 2.31627C591.399 2.43854 594.019 2.5608 596.468 2.67628C601.374 2.91402 605.62 3.12459 609.103 3.3012C616.029 3.668 619.976 3.88536 619.976 3.88536C619.976 3.88536 620.193 7.79111 620.561 14.7196C620.745 18.1906 620.956 22.4427 621.194 27.3266C621.309 29.7855 621.432 32.4007 621.554 35.1517C621.677 37.9434 621.799 40.8507 621.928 43.9141C622.058 46.9912 622.18 50.1837 622.309 53.5189C622.432 56.8404 622.554 60.2911 622.677 63.8708C622.793 67.4369 622.901 71.1117 623.01 74.8816C623.119 78.6515 623.221 82.5164 623.316 86.4562C623.405 90.3959 623.487 94.4171 623.561 98.4994C623.636 102.589 623.697 106.718 623.752 110.903C623.8 115.08 623.834 119.305 623.868 123.537C623.888 127.769 623.902 132.055 623.908 136.327C623.902 140.58 623.888 144.845 623.868 149.077C623.834 153.329 623.8 157.534 623.752 161.725C623.697 165.909 623.636 170.039 623.561 174.128C623.487 178.211 623.405 182.239 623.316 186.171C623.221 190.118 623.119 193.983 623.017 197.76C622.901 201.53 622.793 205.204 622.677 208.77C622.554 212.343 622.432 215.794 622.309 219.102C622.18 222.457 622.058 225.636 621.928 228.72C621.806 231.77 621.677 234.698 621.554 237.469C621.432 240.234 621.309 242.849 621.194 245.301C620.956 250.178 620.745 254.444 620.561 257.922C620.193 264.816 619.976 268.769 619.976 268.769C619.976 268.769 615.063 269.021 607.634 269.428C603.891 269.619 599.51 269.836 594.801 270.06C590.073 270.277 585.004 270.495 579.908 270.712C574.791 270.902 569.647 271.092 564.796 271.283C559.952 271.446 555.4 271.595 551.495 271.697C543.65 271.928 538.404 272.057 538.404 272.057C538.404 272.057 538.452 269.306 538.567 264.504C538.642 262.079 538.697 259.131 538.792 255.734C538.874 252.325 538.955 248.487 539.037 244.248C539.139 239.996 539.221 235.37 539.323 230.466C539.432 225.514 539.534 220.27 539.629 214.836C539.676 212.106 539.724 209.321 539.758 206.495C539.819 203.662 539.86 200.782 539.887 197.889C539.949 194.981 539.989 192.04 540.017 189.072C540.071 186.11 540.105 183.135 540.139 180.146C540.173 177.151 540.187 174.155 540.221 171.173C540.262 168.164 540.289 165.169 540.309 162.207C540.33 159.246 540.35 156.291 540.364 153.37C540.364 150.449 540.391 147.562 540.398 144.723C540.404 139.024 540.404 133.536 540.398 128.312C540.384 123.095 540.357 118.191 540.316 113.647C540.302 109.116 540.268 104.973 540.234 101.318C540.2 97.6571 540.146 94.4714 540.119 91.8427C540.071 86.6395 540.03 83.6644 540.03 83.6644L531.178 83.5557C531.178 83.5557 531.226 86.5377 531.28 91.7476C531.308 94.3831 531.335 97.5756 531.369 101.237C531.396 104.898 531.41 109.048 531.457 113.593C531.485 118.15 531.498 123.061 531.519 128.292C531.525 133.529 531.525 139.031 531.519 144.743C531.505 147.59 531.498 150.483 531.471 153.411C531.471 156.338 531.457 159.3 531.437 162.268C531.417 165.237 531.396 168.239 531.369 171.248C531.342 174.244 531.314 177.246 531.287 180.242C531.26 183.23 531.226 186.219 531.172 189.181C531.158 192.149 531.104 195.104 531.083 198.011C531.049 200.911 531.008 203.785 530.967 206.624C530.927 209.456 530.872 212.241 530.852 214.972C530.763 220.413 530.661 225.664 530.58 230.615C530.518 235.533 530.437 240.159 530.342 244.418C530.28 248.657 530.205 252.501 530.137 255.911C530.056 259.307 530.015 262.255 529.967 264.687C529.865 269.489 529.811 272.24 529.811 272.24C529.811 272.24 524.524 272.342 516.584 272.444C512.59 272.499 507.957 272.56 502.963 272.6C497.975 272.614 492.648 272.648 487.327 272.641C482 272.648 476.673 272.607 471.692 272.573C466.698 272.526 462.065 272.478 458.078 272.424C450.137 272.295 444.871 272.206 444.871 272.206C444.871 272.206 444.81 269.455 444.708 264.653C444.64 262.221 444.585 259.273 444.511 255.877C444.463 252.467 444.388 248.623 444.307 244.384C444.225 240.125 444.143 235.506 444.055 230.588C443.953 225.636 443.885 220.393 443.783 214.952C443.755 212.221 443.715 209.429 443.674 206.604C443.633 203.764 443.592 200.891 443.551 197.984C443.517 195.077 443.483 192.129 443.442 189.16C443.408 186.199 443.374 183.217 443.347 180.221C443.313 177.226 443.286 174.223 443.245 171.235C443.218 168.225 443.211 165.23 443.191 162.262C443.17 159.286 443.157 156.332 443.143 153.404C443.129 150.476 443.123 147.583 443.095 144.737C443.102 139.031 443.102 133.529 443.109 128.299C443.129 123.068 443.15 118.157 443.17 113.606C443.197 109.062 443.232 104.912 443.259 101.257C443.293 97.5892 443.327 94.3967 443.354 91.768C443.408 86.5512 443.442 83.5557 443.442 83.5557L434.611 83.6848C434.611 83.6848 434.557 86.6599 434.509 91.8631C434.482 94.4918 434.448 97.6775 434.393 101.339C434.373 104.986 434.339 109.13 434.305 113.66C434.278 118.205 434.257 123.095 434.244 128.319C434.23 133.536 434.23 139.024 434.244 144.716C434.25 147.556 434.264 150.442 434.278 153.363C434.291 156.284 434.312 159.232 434.332 162.194C434.332 165.155 434.38 168.151 434.407 171.153C434.434 174.142 434.468 177.137 434.482 180.126C434.536 183.115 434.577 186.09 434.618 189.045C434.638 192.013 434.699 194.961 434.74 197.861C434.788 200.762 434.836 203.635 434.863 206.468C434.924 209.293 434.978 212.078 435.026 214.802C435.128 220.243 435.223 225.48 435.325 230.432C435.427 235.336 435.523 239.955 435.618 244.214C435.7 248.446 435.802 252.291 435.883 255.694C435.965 259.09 436.04 262.038 436.094 264.463C436.217 269.265 436.285 272.003 436.285 272.003C436.285 272.003 431.039 271.867 423.201 271.649C419.289 271.541 414.744 271.378 409.899 271.208C405.055 271.031 399.938 270.848 394.829 270.644C389.739 270.427 384.677 270.203 379.942 269.979C375.24 269.741 370.866 269.523 367.144 269.326C359.734 268.953 354.822 268.661 354.822 268.661C354.822 268.661 354.604 264.728 354.216 257.833C354.053 254.362 353.835 250.097 353.584 245.219C353.482 242.774 353.359 240.159 353.237 237.394C353.101 234.623 352.985 231.702 352.856 228.652C352.733 225.569 352.604 222.39 352.475 219.041C352.352 215.733 352.216 212.289 352.107 208.716C351.992 205.15 351.876 201.475 351.767 197.712C351.665 193.935 351.563 190.07 351.468 186.131C351.379 182.205 351.291 178.177 351.216 174.101C351.148 170.012 351.066 165.889 351.012 161.705C350.978 157.52 350.944 153.309 350.91 149.07C350.889 144.839 350.876 140.573 350.876 136.327C350.876 132.055 350.889 127.776 350.91 123.544C350.923 119.319 350.985 115.094 351.025 110.923C351.066 106.746 351.148 102.616 351.216 98.5334C351.291 94.451 351.379 90.4298 351.468 86.4969C351.563 82.5572 351.665 78.699 351.767 74.9291C351.883 71.1592 351.992 67.4912 352.107 63.9251C352.23 60.3522 352.352 56.9016 352.461 53.58C352.604 50.2448 352.733 47.0523 352.856 43.9821C352.985 40.9254 353.114 38.0114 353.237 35.2264C353.366 32.4754 353.482 29.867 353.584 27.4013C353.842 22.5242 354.053 18.2789 354.216 14.8011C354.611 7.87941 354.829 3.98046 354.829 3.98046Z" fill="white"/>
<path d="M628.243 4.36084C628.243 4.36084 632.114 4.59179 638.857 4.99935C642.204 5.20992 646.246 5.46803 650.872 5.76691C653.145 5.92314 655.581 6.08616 658.159 6.25597C660.711 6.43258 663.371 6.61598 666.133 6.81297C668.923 7.00995 671.781 7.22052 674.747 7.43109C677.68 7.64845 680.707 7.8794 683.803 8.11035C686.878 8.34809 690.029 8.59263 693.233 8.84395C696.417 9.09528 699.656 9.3534 702.935 9.6251C706.167 9.89001 709.474 10.1617 712.794 10.4402C716.06 10.7187 719.394 11.004 722.721 11.2961C726.007 11.5882 729.321 11.8802 732.607 12.1723C735.893 12.4712 739.153 12.7701 742.405 13.0689C745.623 13.3746 748.821 13.6735 751.998 13.9792C755.148 14.278 758.271 14.5837 761.333 14.8826C764.395 15.1882 767.409 15.4871 770.355 15.7792C773.281 16.0781 776.179 16.3769 778.969 16.6622C781.786 16.9543 784.521 17.2396 787.181 17.5181C789.821 17.7966 792.393 18.0751 794.876 18.34C797.332 18.6049 799.734 18.863 802.027 19.1144C804.32 19.3657 806.511 19.6102 808.613 19.848C810.688 20.0789 812.682 20.3031 814.567 20.5136C816.438 20.7242 818.207 20.928 819.86 21.1182C823.153 21.4986 825.997 21.8314 828.31 22.0963C832.924 22.6465 835.536 22.9522 835.536 22.9522C835.536 22.9522 835.842 26.3756 836.346 32.4414C836.604 35.4777 836.897 39.1797 837.217 43.4183C837.366 45.5579 837.537 47.8267 837.707 50.2109C837.87 52.6222 838.02 55.1355 838.203 57.7778C838.367 60.4269 838.53 63.1711 838.68 66.0376C838.85 68.8905 839.006 71.8521 839.156 74.9087C839.292 77.9586 839.435 81.0968 839.571 84.3029C839.714 87.5226 839.836 90.8102 839.945 94.159C840.061 97.5009 840.163 100.918 840.251 104.375C840.34 107.839 840.415 111.331 840.476 114.87C840.53 118.395 840.578 121.961 840.612 125.534C840.639 129.107 840.653 132.721 840.653 136.327C840.653 139.914 840.639 143.514 840.612 147.087C840.578 150.667 840.53 154.226 840.476 157.765C840.415 161.304 840.34 164.795 840.251 168.259C840.163 171.717 840.061 175.134 839.945 178.469C839.836 181.824 839.714 185.112 839.571 188.332C839.435 191.544 839.292 194.683 839.156 197.732C839.006 200.789 838.85 203.744 838.68 206.59C838.53 209.47 838.367 212.201 838.19 214.863C838.026 217.492 837.856 220.019 837.707 222.417C837.537 224.815 837.366 227.083 837.224 229.203C836.904 233.448 836.604 237.163 836.346 240.2C835.842 246.238 835.536 249.689 835.536 249.689C835.536 249.689 832.284 250.076 827.338 250.667C824.84 250.946 821.901 251.285 818.737 251.652C815.546 252.012 812.11 252.406 808.647 252.793C805.15 253.18 801.612 253.568 798.278 253.948C794.924 254.294 791.76 254.634 789.018 254.926C783.521 255.51 779.806 255.911 779.806 255.911C779.806 255.911 780.017 253.411 780.377 249.057C780.554 246.863 780.765 244.201 780.996 241.137C781.221 238.067 781.473 234.616 781.738 230.812C781.976 227.009 782.255 222.879 782.52 218.504C782.765 214.103 783.031 209.45 783.276 204.641C783.391 202.236 783.507 199.777 783.609 197.291C783.725 194.798 783.834 192.271 783.929 189.731C784.031 187.184 784.119 184.609 784.208 182.014C784.289 179.433 784.371 176.832 784.446 174.237C784.514 171.629 784.568 169.027 784.636 166.439C784.691 163.831 784.738 161.236 784.786 158.668C784.82 156.101 784.861 153.553 784.888 151.027C784.902 148.507 784.929 146.014 784.949 143.568C784.963 138.65 784.963 133.923 784.936 129.413C784.915 124.909 784.875 120.684 784.827 116.758C784.752 112.832 784.698 109.239 784.636 106.08C784.548 102.901 784.494 100.13 784.426 97.8405C784.296 93.3031 784.208 90.6947 784.208 90.6947L778.077 90.457C778.077 90.457 778.173 93.0653 778.309 97.63C778.37 99.9259 778.438 102.711 778.513 105.91C778.581 109.089 778.642 112.703 778.703 116.649C778.758 120.596 778.799 124.848 778.812 129.379C778.833 133.909 778.833 138.664 778.826 143.602C778.812 146.068 778.778 148.574 778.765 151.115C778.724 153.649 778.69 156.216 778.649 158.797C778.622 161.372 778.567 163.98 778.513 166.602C778.459 169.21 778.384 171.825 778.322 174.447C778.241 177.063 778.173 179.671 778.091 182.266C777.989 184.874 777.907 187.469 777.799 190.023C777.696 192.584 777.608 195.117 777.499 197.624C777.383 200.123 777.275 202.596 777.152 205.021C776.9 209.85 776.655 214.524 776.39 218.953C776.138 223.347 775.859 227.498 775.608 231.322C775.356 235.139 775.111 238.61 774.88 241.694C774.648 244.771 774.424 247.447 774.247 249.655C773.907 254.023 773.696 256.522 773.696 256.522C773.696 256.522 769.892 256.903 764.136 257.48C761.211 257.772 757.795 258.105 754.128 258.458C750.42 258.811 746.419 259.192 742.405 259.565C738.35 259.946 734.261 260.319 730.389 260.666C726.504 261.012 722.844 261.332 719.68 261.61C713.325 262.153 709.039 262.513 709.039 262.513C709.039 262.513 709.236 259.912 709.569 255.354C709.733 253.051 709.93 250.26 710.154 247.047C710.352 243.827 710.597 240.193 710.848 236.206C711.087 232.198 711.338 227.851 711.59 223.245C711.821 218.613 712.073 213.709 712.311 208.635C712.42 206.094 712.529 203.499 712.624 200.871C712.74 198.235 712.842 195.572 712.924 192.883C713.032 190.193 713.121 187.469 713.203 184.725C713.284 181.994 713.359 179.243 713.434 176.492C713.502 173.734 713.55 170.976 713.618 168.232C713.672 165.474 713.72 162.723 713.76 160.006C713.801 157.289 713.835 154.586 713.849 151.91C713.883 149.24 713.903 146.598 713.917 143.996C713.937 138.793 713.937 133.773 713.917 128.998C713.89 124.23 713.849 119.747 713.801 115.583C713.74 111.426 713.679 107.622 713.618 104.273C713.543 100.904 713.475 97.9764 713.407 95.5514C713.291 90.7491 713.209 88.0049 713.209 88.0049L706.12 87.7603C706.12 87.7603 706.201 90.5249 706.331 95.3477C706.392 97.7794 706.453 100.727 706.528 104.11C706.589 107.479 706.65 111.297 706.698 115.481C706.759 119.658 706.8 124.169 706.827 128.964C706.841 133.76 706.841 138.807 706.827 144.037C706.814 146.645 706.793 149.301 706.773 151.991C706.725 154.674 706.712 157.398 706.671 160.129C706.63 162.859 706.582 165.617 706.528 168.395C706.473 171.153 706.412 173.924 706.344 176.689C706.276 179.46 706.201 182.225 706.12 184.969C706.031 187.727 705.943 190.464 705.854 193.168C705.759 195.864 705.643 198.548 705.555 201.19C705.453 203.832 705.344 206.434 705.228 208.988C704.983 214.089 704.759 219.014 704.521 223.667C704.269 228.292 704.024 232.66 703.786 236.681C703.534 240.689 703.289 244.336 703.092 247.57C702.874 250.789 702.67 253.595 702.52 255.904C702.187 260.482 701.997 263.098 701.997 263.098C701.997 263.098 697.622 263.451 690.995 263.974C687.661 264.232 683.742 264.531 679.53 264.85C675.285 265.169 670.699 265.516 666.12 265.842C661.493 266.154 656.832 266.487 652.417 266.786C648.015 267.071 643.857 267.323 640.285 267.567C633.08 268.009 628.243 268.294 628.243 268.294C628.243 268.294 628.467 264.354 628.855 257.473C629.039 254.009 629.263 249.75 629.508 244.887C629.61 242.448 629.753 239.84 629.882 237.082C630.005 234.317 630.134 231.397 630.27 228.36C630.399 225.283 630.529 222.111 630.658 218.776C630.787 215.475 630.91 212.038 631.039 208.472C631.155 204.919 631.27 201.258 631.386 197.502C631.495 193.745 631.597 189.887 631.692 185.961C631.787 182.042 631.869 178.034 631.951 173.965C632.019 169.896 632.087 165.78 632.141 161.616C632.189 157.446 632.23 153.255 632.257 149.023C632.284 144.805 632.298 140.559 632.298 136.327C632.298 132.075 632.284 127.809 632.257 123.591C632.23 119.38 632.189 115.168 632.141 111.018C632.087 106.848 632.019 102.738 631.951 98.6625C631.869 94.6005 631.787 90.5861 631.692 86.6667C631.597 82.7406 631.495 78.896 631.386 75.1329C631.27 71.3834 631.155 67.7154 631.039 64.1629C630.91 60.6035 630.787 57.1665 630.658 53.8449C630.529 50.5233 630.399 47.3376 630.27 44.2809C630.134 41.2243 630.005 38.3238 629.876 35.5389C629.753 32.8014 629.624 30.1931 629.501 27.7342C629.256 22.8707 629.039 18.6321 628.848 15.1611C628.467 8.253 628.243 4.36084 628.243 4.36084Z" fill="white"/>
<path d="M840.993 23.6108C840.993 23.6108 843.544 23.9165 847.96 24.4599C850.151 24.7316 852.784 25.0577 855.791 25.4313C857.281 25.6147 858.86 25.8184 860.513 26.029C862.166 26.2328 863.888 26.4569 865.67 26.6811C867.46 26.912 869.297 27.1498 871.202 27.4011C873.08 27.6456 875.019 27.897 876.999 28.1551C878.965 28.4132 880.972 28.6849 883.014 28.9566C885.041 29.2283 887.096 29.5 889.171 29.7853C891.233 30.0638 893.315 30.3491 895.41 30.6344C897.485 30.9197 899.574 31.2118 901.67 31.5038C903.738 31.7959 905.82 32.088 907.882 32.3801C909.936 32.6722 911.984 32.9575 914.019 33.2495C916.026 33.5416 918.026 33.8337 920.006 34.119C921.973 34.4043 923.918 34.6896 925.823 34.9749C927.729 35.2534 929.6 35.5318 931.43 35.8036C933.253 36.082 935.043 36.347 936.785 36.6119C938.52 36.8768 940.214 37.1349 941.86 37.3862C943.493 37.6375 945.079 37.8821 946.616 38.1198C948.14 38.3576 949.617 38.5885 951.032 38.8059C952.447 39.03 953.801 39.2474 955.094 39.4512C956.373 39.655 957.604 39.8451 958.761 40.0353C959.918 40.2187 961.006 40.3886 962.027 40.5584C964.055 40.8844 965.796 41.1629 967.232 41.4006C970.062 41.8625 971.668 42.1275 971.668 42.1275C971.668 42.1275 971.995 45.7411 972.457 51.1752C972.668 53.8786 972.927 57.078 973.178 60.4878C973.423 63.9113 973.668 67.5657 973.913 71.2201C974.131 74.8881 974.349 78.5561 974.532 82C974.709 85.437 974.852 88.6635 974.981 91.4213C975.199 96.9505 975.342 100.652 975.342 100.652C975.342 100.652 974.247 100.585 972.321 100.462C971.348 100.388 970.171 100.326 968.81 100.238C967.436 100.15 965.871 100.041 964.163 99.946C962.435 99.8373 960.551 99.7083 958.537 99.586C956.502 99.4638 954.345 99.3279 952.093 99.2056C950.95 99.1241 949.8 99.063 948.616 98.9951C947.433 98.9203 946.222 98.8524 945.004 98.7777C943.765 98.703 942.527 98.6283 941.268 98.5468C940.003 98.4788 938.731 98.4041 937.451 98.3294C936.165 98.2547 934.866 98.1664 933.573 98.0916C932.267 98.0305 930.967 97.9558 929.661 97.8675C928.355 97.7996 927.055 97.7249 925.755 97.6433C924.456 97.5686 923.177 97.5075 921.891 97.4192C919.326 97.2765 916.815 97.1339 914.413 97.0116C911.991 96.8758 909.685 96.7535 907.528 96.6312C905.371 96.5158 903.364 96.3935 901.581 96.2916C899.785 96.1965 898.213 96.1286 896.907 96.0403C894.281 95.9112 892.777 95.8229 892.777 95.8229L892.995 102.656C892.995 102.656 894.498 102.738 897.125 102.853C898.431 102.901 899.996 102.969 901.799 103.05C903.582 103.132 905.582 103.234 907.746 103.322C909.896 103.431 912.209 103.539 914.624 103.634C917.033 103.763 919.537 103.865 922.102 104.001C923.381 104.049 924.667 104.123 925.966 104.171C927.266 104.246 928.566 104.293 929.872 104.354C931.178 104.422 932.478 104.497 933.784 104.545C935.077 104.606 936.37 104.687 937.655 104.735C938.935 104.81 940.207 104.871 941.472 104.932C942.731 105 943.969 105.061 945.208 105.122C946.426 105.183 947.63 105.237 948.821 105.299C949.998 105.36 951.154 105.414 952.297 105.462C954.549 105.591 956.699 105.686 958.734 105.801C960.741 105.903 962.626 106.005 964.361 106.093C966.068 106.182 967.627 106.263 969.001 106.324C970.362 106.406 971.539 106.467 972.512 106.521C974.437 106.623 975.533 106.677 975.533 106.677C975.533 106.677 975.587 108.627 975.669 112.016C975.71 113.728 975.744 115.786 975.798 118.157C975.832 120.534 975.866 123.211 975.907 126.138C975.927 129.052 975.948 132.224 975.954 135.566C975.948 138.922 975.934 142.454 975.907 146.109C975.866 149.756 975.812 153.533 975.744 157.364C975.655 161.195 975.56 165.087 975.444 168.966C975.315 172.851 975.165 176.73 975.016 180.547C974.845 184.358 974.662 188.107 974.478 191.728C974.274 195.341 974.07 198.846 973.866 202.154C973.641 205.455 973.43 208.566 973.233 211.446C973.015 214.327 972.818 216.955 972.634 219.285C972.444 221.608 972.267 223.632 972.131 225.303C971.838 228.618 971.668 230.527 971.668 230.527C971.668 230.527 970.062 230.792 967.232 231.247C965.803 231.478 964.055 231.77 962.027 232.096C961.006 232.266 959.918 232.436 958.761 232.619C957.604 232.809 956.38 232.993 955.094 233.196C953.801 233.4 952.447 233.611 951.032 233.835C949.617 234.066 948.14 234.283 946.616 234.535C945.079 234.759 943.493 235.017 941.86 235.255C940.214 235.519 938.52 235.764 936.785 236.029C935.043 236.307 933.253 236.572 931.43 236.837C929.6 237.109 927.729 237.387 925.823 237.666C923.918 237.965 921.973 238.25 920.006 238.535C918.026 238.821 916.026 239.113 914.019 239.391C911.984 239.683 909.936 239.982 907.882 240.267C905.82 240.56 903.738 240.858 901.67 241.151C899.574 241.429 897.485 241.721 895.41 242.006C893.315 242.305 891.233 242.591 889.178 242.855C887.096 243.141 885.041 243.426 883.014 243.698C880.972 243.969 878.965 244.241 876.999 244.486C875.019 244.757 873.087 244.995 871.202 245.253C869.297 245.505 867.46 245.729 865.677 245.96C863.888 246.184 862.166 246.408 860.513 246.612C858.86 246.836 857.281 247.04 855.791 247.209C852.784 247.583 850.151 247.909 847.96 248.181C843.544 248.738 840.993 249.03 840.993 249.03C840.993 249.03 841.374 244.751 841.932 238.291C842.19 235.078 842.483 231.294 842.789 227.226C843.075 223.157 843.374 218.803 843.66 214.428C843.912 210.054 844.177 205.666 844.402 201.556C844.599 197.42 844.796 193.562 844.939 190.254C845.211 183.624 845.374 179.175 845.374 179.175C845.374 179.175 847.116 179.107 850.158 178.951C851.675 178.89 853.498 178.788 855.58 178.699C857.655 178.597 859.976 178.482 862.486 178.346C864.983 178.217 867.664 178.081 870.474 177.945C873.257 177.816 876.176 177.653 879.156 177.511C882.109 177.361 885.143 177.191 888.178 177.028C889.688 176.947 891.205 176.872 892.716 176.804C894.226 176.723 895.73 176.641 897.227 176.546C898.703 176.485 900.187 176.403 901.656 176.322C903.112 176.247 904.561 176.166 905.99 176.077C908.814 175.921 911.583 175.779 914.23 175.622C916.842 175.486 919.353 175.344 921.707 175.215C924.041 175.079 926.232 174.957 928.246 174.828C930.232 174.712 932.042 174.617 933.634 174.529C935.22 174.42 936.587 174.352 937.717 174.291C939.955 174.155 941.214 174.08 941.214 174.08L941.425 167.702C941.425 167.702 940.159 167.75 937.921 167.872C936.791 167.933 935.431 167.981 933.845 168.076C932.246 168.137 930.437 168.239 928.45 168.334C926.443 168.415 924.252 168.517 921.918 168.633C919.564 168.741 917.053 168.87 914.441 168.979C911.801 169.115 909.032 169.244 906.201 169.36C904.779 169.434 903.33 169.489 901.874 169.557C900.404 169.631 898.921 169.686 897.431 169.767C895.948 169.835 894.444 169.903 892.934 169.971C891.423 170.032 889.906 170.1 888.402 170.168C885.361 170.297 882.333 170.433 879.38 170.548C876.4 170.684 873.481 170.813 870.699 170.915C867.889 171.044 865.208 171.16 862.711 171.261C860.2 171.363 857.88 171.458 855.812 171.547C853.723 171.615 851.906 171.689 850.389 171.764C847.341 171.886 845.599 171.941 845.599 171.941C845.599 171.941 845.667 169.611 845.769 165.529C845.817 163.477 845.864 160.998 845.919 158.145C845.966 155.292 846.014 152.072 846.048 148.554C846.082 145.042 846.103 141.225 846.109 137.203C846.109 133.169 846.075 128.923 846.055 124.535C846.007 120.12 845.939 115.596 845.851 110.998C845.749 106.392 845.626 101.726 845.477 97.0456C845.334 92.3859 845.164 87.7262 844.973 83.1547C844.769 78.6037 844.551 74.1138 844.327 69.7597C844.089 65.4532 843.844 61.2758 843.599 57.3225C843.347 53.3896 843.088 49.6604 842.843 46.2438C842.592 42.8203 842.354 39.6957 842.136 36.9311C841.905 34.1665 841.714 31.7755 841.544 29.7921C841.204 25.8592 840.993 23.6108 840.993 23.6108Z" fill="white"/>
</svg>
